# xmcd CD database file
#
# Track frame offsets:
#	150
#	16302
#	30084
#	47965
#	66274
#	86652
#	101632
#	122473
#	143256
#	161692
#	188684
#	205140
#	222397
#	244042
#	262261
#	281305
#	300625
#
# Disc length: 4298 seconds
#
# Revision: 0
# Processed by: cddbd v1.5.2PL0 Copyright (c) Steve Scherf et al.
# Submitted via: CDex 1.51
#
DISCID=e610c811
DTITLE=Sugarland - Love On The Inside
DYEAR=2008
DGENRE=Country
TTITLE0=All I Want To Do
TTITLE1=It Happens
TTITLE2=We Run
TTITLE3=Joey
TTITLE4=Love
TTITLE5=Genevieve
TTITLE6=Already Gone
TTITLE7=Keep You
TTITLE8=Take Me As I Am
TTITLE9=What I'd Give
TTITLE10=Steve Earle
TTITLE11=Very Last Country Song
TTITLE12=Fall Into Me
TTITLE13=Operation: Working Vacation
TTITLE14=Wishing
TTITLE15=Life In A Northern Town (Live)
TTITLE16=Come On Get Higher (Live)
EXTD=YEAR: 2008
EXTT0=
EXTT1=
EXTT2=
EXTT3=
EXTT4=
EXTT5=
EXTT6=
EXTT7=
EXTT8=
EXTT9=
EXTT10=
EXTT11=
EXTT12=
EXTT13=
EXTT14=
EXTT15=
EXTT16=
PLAYORDER=
